<svg xmlns="http://www.w3.org/2000/svg" width="419" height="588"><path d="M354 58c3.4 3.48 4.508 5.83 4.698 10.662l.161 3.41c.04 1.221.078 2.443.118 3.701l.168 3.903c.152 3.505.28 7.01.402 10.516.13 3.65.28 7.299.428 10.948q.315 7.86.604 15.72.434 11.781.975 23.558c.232 5.078.45 10.157.665 15.236q.156 3.585.325 7.17c.154 3.313.288 6.627.417 9.942l.15 2.942c.17 4.955.21 8.292-3.111 12.292-2.523 1.914-3.692 2.024-6.872 1.778-3.588-.892-4.85-1.936-7.362-4.594l-2.239-2.315-2.277-2.431a1175 1175 0 0 0-4.547-4.754l-2.01-2.14c-1.557-1.769-1.557-1.769-3.693-1.544-1.697 2.116-1.697 2.116-3.45 4.863l-2.071 3.131-2.166 3.319-2.108 3.189c-2.512 3.81-2.512 3.81-4.999 7.636a460 460 0 0 1-2.779 4.233c-4.649 7.114-8.557 14.48-12.322 22.09q-.957 1.92-1.915 3.837-1.999 4.004-3.986 8.013a4076 4076 0 0 1-5.012 10.067q-4.816 9.645-9.575 19.32c-1.911 3.882-3.847 7.75-5.794 11.615q-1.388 2.8-2.772 5.601l-1.269 2.475c-3.992 8.18-2.955 14.892-1.348 23.611l.462 2.59c.504 2.805 1.021 5.608 1.541 8.41l.549 2.973c4.78 25.829 10.48 51.348 17.063 76.777q.944 3.653 1.886 7.308l1.265 4.906.635 2.463a2320 2320 0 0 0 3.855 14.71c.813 3.08 1.613 6.165 2.41 9.25q.57 2.184 1.158 4.364c.54 2.005 1.06 4.014 1.573 6.026l.907 3.436c.262 2.787.262 2.787-.835 4.57-2.352 1.504-4.488 2.188-7.187 2.915l-3.283.902-3.57.947-3.715 1.013q-4.919 1.337-9.842 2.655c-5.797 1.556-11.588 3.134-17.38 4.707l-3.82 1.036a1570 1570 0 0 0-24.313 6.808l-2.835.813c-5.647 1.65-11.147 3.546-16.638 5.66C207 481 207 481 204 481c-.79-5.848-1.296-11.662-1.648-17.55l-.173-2.778-.366-5.912q-.483-7.861-.981-15.72l-.205-3.253a4879 4879 0 0 0-2.315-34.224l-.201-2.867Q197.558 390.848 197 383l-.8 1.85q-4.207 9.74-8.422 19.476l-3.122 7.22c-5.512 12.762-11.075 25.497-16.855 38.142l-1.422 3.115-1.304 2.834-1.145 2.49C163 460 163 460 162 461l2.703.48 3.547.707 3.516.668c3.825 1.354 5.102 2.743 7.234 6.145.563 3 .563 3 0 6-4.197 5.024-9.608 8.14-15.125 11.563l-2.963 1.86q-3.012 1.892-6.03 3.777c-4.137 2.584-8.26 5.193-12.382 7.8l-4.668 2.945a5201 5201 0 0 0-15.644 9.93l-2.766 1.76a19653 19653 0 0 0-17.14 10.928q-4.156 2.646-8.321 5.28a523 523 0 0 0-8.984 5.813l-1.783 1.159a511 511 0 0 0-4.44 2.927c-3.458 1.58-5.993 1.61-9.754 1.258-2.907-2.219-3.84-3.52-5-7-.178-2.745-.304-5.47-.389-8.218l-.089-2.545c-.097-2.794-.186-5.588-.276-8.382l-.197-5.892q-.208-6.21-.406-12.42-.202-6.284-.416-12.565a4462 4462 0 0 1-1.292-43.486c-.128-5.064-.215-10.126-.275-15.191l-.085-3.685-.016-3.322-.036-2.835c.632-3.256 1.902-4.432 4.477-6.459 3.556-.752 5.792-.772 8.914 1.223 4.874 4.107 9.036 8.932 13.203 13.738C88.84 427.067 88.84 427.067 91 428l.85-2.215c1.055-2.555 2.225-4.923 3.548-7.348l1.434-2.63L98.375 413l1.618-2.956a1079 1079 0 0 1 10.882-19.294c5.76-10 11.233-20.146 16.672-30.324a794 794 0 0 1 6.656-12.196c6.025-10.818 11.447-21.743 16.469-33.062 2.437-5.474 5.083-10.828 7.817-16.16 3.848-7.406 3.848-7.406 4.25-15.572l-.334-3.2a398 398 0 0 0-2.225-15.209l-.544-3.36c-.58-3.577-1.17-7.154-1.761-10.73l-.612-3.722C153.939 227.044 150.25 206.995 146 187l-1.045-4.936-.545-2.573-1.1-5.202a3244 3244 0 0 0-2.646-12.42c-1.841-8.595-3.458-17.158-4.664-25.869a18244 18244 0 0 1 32.207-13.354q8.67-3.59 17.325-7.215 5.381-2.248 10.768-4.483 2.573-1.073 5.143-2.154 3.583-1.505 7.174-2.99c.708-.3 1.415-.602 2.144-.912 4.897-2.006 4.897-2.006 8.239-.892l.41 3.738q1.915 17.415 3.84 34.83.991 8.955 1.975 17.908.949 8.637 1.906 17.273l.726 6.6q.506 4.61 1.02 9.223l.3 2.772.285 2.537.243 2.204c.273 2.13.273 2.13 1.295 4.915l.955-2.138a7955 7955 0 0 1 21.149-46.958q1.388-3.06 2.779-6.119l1.606-3.535A305 305 0 0 1 262 138l-2.937.188c-4.59 0-8.951-1.153-13.063-3.188-2.5-3.75-2.536-5.559-2-10 4.364-5.443 10.526-8.72 16.375-12.375q2.528-1.597 5.053-3.196 1.727-1.093 3.455-2.184c5.743-3.63 11.433-7.337 17.117-11.058l5.695-3.722 2.72-1.778c5.838-3.81 11.696-7.59 17.552-11.372 2.82-1.824 5.633-3.655 8.448-5.485 2.117-1.373 4.24-2.737 6.362-4.1a455 455 0 0 0 8.602-5.68l4.246-2.8 1.936-1.342c4.486-2.917 7.323-3.585 12.439-1.908" fill="#191919"/></svg>